<svg width="263" height="215" viewBox="0 0 263 215" fill="none" xmlns="http://www.w3.org/2000/svg">
<path d="M97.8186 212.447C78.5167 203.156 27.6464 178.613 4.70394 167.003C-1.78685 163.718 -1.48171 158.357 5.13225 155.328L99.9496 111.905C102.614 110.685 105.648 112.632 105.648 115.563V135.407C105.648 136.279 106.544 136.863 107.342 136.512L196.978 97.0246V23.4092C196.978 21.4847 198.222 19.7807 200.055 19.1941L259.733 0.0972539C261.031 -0.318126 262.357 0.650318 262.357 2.01322V131.995C262.357 135.344 260.467 138.407 257.473 139.908L113.036 212.311C108.249 214.711 102.643 214.769 97.8186 212.447Z" fill="#FEFEFE"/>
</svg>
