<svg width="211" height="243" viewBox="0 0 211 243" fill="none" xmlns="http://www.w3.org/2000/svg">
<path d="M90.2208 130.617L1.53955 165.699C1.53955 165.699 -1.47796 255.219 0.936041 241.137C3.35005 227.055 172.934 156.647 172.934 156.647V102.689C172.934 101.61 171.892 100.836 170.859 101.149L131.695 112.994V97.7049L209.131 61.4496C210.121 60.9862 210.753 60.0128 210.753 58.9199V4.01859C210.753 1.0286 207.608 -0.905431 204.933 0.430363L54.3524 75.6243C53.6704 75.9648 53.2395 76.6617 53.2395 77.424V133.213C53.2395 133.694 53.659 134.067 54.137 134.012L90.0264 129.843C90.4939 129.789 90.6584 130.444 90.2208 130.617Z" fill="#FEFEFE"/>
</svg>
