<svg width="585" height="554" viewBox="0 0 585 554" fill="none" xmlns="http://www.w3.org/2000/svg">
<rect width="584.665" height="553.195" fill="white"/>
<path d="M334.542 226.49H220.279C218.946 226.49 217.865 225.409 217.865 224.076V192.291C217.865 190.958 218.946 189.877 220.279 189.877H334.542C335.875 189.877 336.956 190.958 336.956 192.291V224.076C336.956 225.409 335.875 226.49 334.542 226.49Z" fill="#10213C"/>
<path d="M262.741 380.134C243.439 370.843 192.569 346.3 169.626 334.69C163.136 331.405 163.441 326.044 170.055 323.015L264.872 279.592C267.537 278.372 270.571 280.319 270.571 283.25V303.094C270.571 303.966 271.466 304.55 272.264 304.199L361.9 264.711V191.096C361.9 189.171 363.144 187.467 364.977 186.881L424.655 167.784C425.953 167.369 427.28 168.337 427.28 169.7V299.682C427.28 303.031 425.389 306.094 422.395 307.595L277.958 379.998C273.172 382.398 267.565 382.456 262.741 380.134Z" fill="#0B173B"/>
<path d="M254.846 218.162L166.165 253.245C166.165 253.245 163.147 342.764 165.561 328.682C167.975 314.601 337.559 244.192 337.559 244.192V190.235C337.559 189.155 336.517 188.382 335.484 188.694L296.32 200.539V185.25L373.756 148.995C374.746 148.532 375.379 147.558 375.379 146.465V91.564C375.379 88.574 372.233 86.64 369.558 87.9758L218.978 163.17C218.296 163.51 217.865 164.207 217.865 164.969V220.758C217.865 221.239 218.284 221.613 218.762 221.557L254.652 217.388C255.119 217.334 255.284 217.989 254.846 218.162Z" fill="#0B173B"/>
<path d="M117.415 436.259H140.829V445.013H117.415V436.259ZM118.249 456.269H144.72V465.301H107.063V416.666H143.817V425.698H118.249V456.269ZM163.403 465.301V416.666H174.658V456.13H199.045V465.301H163.403ZM225.413 436.259H248.827V445.013H225.413V436.259ZM226.247 456.269H252.718V465.301H215.061V416.666H251.814V425.698H226.247V456.269ZM285.312 465.301L264.33 416.666H276.488L294.831 459.742H287.674L306.295 416.666H317.481L296.429 465.301H285.312ZM323.248 465.301L344.925 416.666H356.041L377.788 465.301H365.977L348.19 422.363H352.637L334.781 465.301H323.248ZM334.086 454.879L337.074 446.333H362.086L365.143 454.879H334.086ZM400.193 465.301V425.837H384.629V416.666H427.011V425.837H411.448V465.301H400.193ZM453.146 436.259H476.56V445.013H453.146V436.259ZM453.98 456.269H480.451V465.301H442.794V416.666H479.548V425.698H453.98V456.269Z" fill="#0B173B"/>
</svg>
