<svg width="270" height="299" viewBox="0 0 270 299" fill="none" xmlns="http://www.w3.org/2000/svg">
<path d="M176.424 141.421H62.1606C60.8274 141.421 59.7466 140.34 59.7466 139.007V107.222C59.7466 105.889 60.8274 104.808 62.1606 104.808H176.424C177.757 104.808 178.838 105.889 178.838 107.222V139.007C178.838 140.34 177.757 141.421 176.424 141.421Z" fill="#FEFEFE"/>
<path d="M104.623 295.065C85.321 285.774 34.4508 261.23 11.5083 249.621C5.01747 246.336 5.32261 240.975 11.9366 237.946L106.754 194.523C109.419 193.303 112.452 195.25 112.452 198.181V218.025C112.452 218.897 113.348 219.481 114.146 219.13L203.782 179.642V106.027C203.782 104.102 205.026 102.398 206.859 101.812L266.537 82.7149C267.835 82.2996 269.162 83.268 269.162 84.6309V214.613C269.162 217.962 267.271 221.025 264.277 222.525L119.84 294.929C115.053 297.329 109.447 297.387 104.623 295.065Z" fill="#FEFEFE"/>
<path d="M96.728 133.093L8.04676 168.176C8.04676 168.176 5.02924 257.695 7.44324 243.613C9.85725 229.532 179.441 159.123 179.441 159.123V105.166C179.441 104.086 178.399 103.313 177.366 103.625L138.202 115.47V100.181L215.638 63.926C216.628 63.4625 217.261 62.4891 217.261 61.3962V6.4949C217.261 3.50492 214.115 1.57089 211.44 2.90668L60.8596 78.1006C60.1776 78.4412 59.7467 79.138 59.7467 79.9003V135.689C59.7467 136.17 60.1662 136.544 60.6442 136.488L96.5336 132.319C97.0011 132.265 97.1656 132.92 96.728 133.093Z" fill="#FEFEFE"/>
</svg>
