<svg xmlns="http://www.w3.org/2000/svg" version="1.1" xmlns:xlink="http://www.w3.org/1999/xlink" width="270" height="299"><svg xmlns="http://www.w3.org/2000/svg" version="1.1" xmlns:xlink="http://www.w3.org/1999/xlink" width="270" height="299"><svg width="270" height="299" viewBox="0 0 270 299" fill="none" xmlns="http://www.w3.org/2000/svg">
<path d="M176.424 141.42H62.1606C60.8274 141.42 59.7466 140.34 59.7466 139.006V107.222C59.7466 105.889 60.8274 104.808 62.1607 104.808H176.424C177.757 104.808 178.838 105.889 178.838 107.222V139.006C178.838 140.34 177.757 141.42 176.424 141.42Z" fill="#10213C"></path>
<path d="M104.623 295.065C85.321 285.774 34.4508 261.23 11.5083 249.621C5.01747 246.336 5.32261 240.975 11.9366 237.946L106.754 194.523C109.419 193.303 112.452 195.25 112.452 198.181V218.025C112.452 218.897 113.348 219.481 114.146 219.13L203.782 179.642V106.027C203.782 104.102 205.026 102.398 206.859 101.812L266.537 82.7149C267.835 82.2996 269.162 83.268 269.162 84.6309V214.613C269.162 217.962 267.271 221.025 264.277 222.525L119.84 294.929C115.053 297.329 109.447 297.387 104.623 295.065Z" fill="#0B173B"></path>
<path d="M96.7279 133.093L8.04663 168.176C8.04663 168.176 5.02912 257.695 7.44312 243.613C9.85713 229.532 179.441 159.123 179.441 159.123V105.166C179.441 104.086 178.399 103.313 177.366 103.625L138.202 115.47V100.181L215.638 63.926C216.628 63.4625 217.26 62.4891 217.26 61.3962V6.4949C217.26 3.50492 214.115 1.57089 211.44 2.90668L60.8595 78.1006C60.1775 78.4412 59.7466 79.138 59.7466 79.9003V135.689C59.7466 136.17 60.1661 136.544 60.6441 136.488L96.5335 132.319C97.0009 132.265 97.1655 132.92 96.7279 133.093Z" fill="url(#paint0_linear_11_108)"></path>
<defs>
<linearGradient id="paint0_linear_11_108" x1="228.325" y1="-1.00585" x2="5.83394" y2="244.418" gradientUnits="userSpaceOnUse">
<stop stop-color="#3DE1DA"></stop>
<stop offset="1" stop-color="#0050CA"></stop>
</linearGradient>
</defs>
</svg></svg><style>@media (prefers-color-scheme: light) { :root { filter: none; } }
@media (prefers-color-scheme: dark) { :root { filter: contrast(0.3846153846153846) brightness(4.5); } }
</style></svg>